<?xml version="1.0" encoding="utf-8"?>
<!-- Generator: Adobe Illustrator 24.3.0, SVG Export Plug-In . SVG Version: 6.00 Build 0)  -->
<svg version="1.1" id="Layer_1" xmlns="http://www.w3.org/2000/svg" xmlns:xlink="http://www.w3.org/1999/xlink" x="0px" y="0px"
	 viewBox="0 0 792 255.5" style="enable-background:new 0 0 792 255.5;" xml:space="preserve">
<style type="text/css">
	.st0{fill-rule:evenodd;clip-rule:evenodd;fill:#FFFFFF;}
</style>
<g>
	<path class="st0" d="M378.8,98.2c-3.8,0-7.4,0-11.1,0c0-0.9,0-1.7,0-2.6c13.2,0,26.5,0,40.1,0c0,0.8,0.1,1.6,0.1,2.6
		c-3.8,0-7.5,0-11.3,0c0,41.9,0,83.6,0,125.6c3.6,0,7.3,0,11.1,0c0,1.2,0,2.2,0,3.3c-13.4,0-26.7,0-40.1,0c0-1,0-2,0-3.2
		c3.7,0,7.4,0,11.2,0c0-20.2,0-40.3,0-60.6c-20.1,0-40.1,0-60.4,0c0,20.1,0,40.2,0,60.5c3.6,0,7.3,0,11.1,0c0,1.2,0,2.1,0,3.2
		c-13.4,0-26.9,0-40.5,0c0-0.9,0-1.9,0-3.1c3.8,0,7.6,0,11.5,0c0-41.9,0-83.7,0-125.7c-3.8,0-7.6,0-11.5,0c0-1.1,0-1.9,0-2.8
		c13.5,0,26.9,0,40.5,0c0,0.8,0.1,1.6,0.1,2.7c-3.8,0-7.5,0-11.4,0c0,1,0,1.8,0,2.5c0,18.9,0,37.8,0,56.7c0,2.2,0.5,3,2.9,3
		c18.4-0.1,36.8-0.1,55.2,0c1.6,0,2.7,0,2.7-2.2c-0.1-19.6,0-39.2,0-58.8C379,99.1,378.9,98.8,378.8,98.2z"/>
	<path class="st0" d="M746.7,188.5c0,12.9,0,25.7,0,38.6c-34.1,0-68.1,0-102.2,0c0-1,0-2,0-3.1c4.2,0,8.3,0,12.6,0
		c0-47,0-93.8,0-140.8c-4.1,0-8.2,0-12.5,0c0-1.1,0-1.9,0-2.8c33.2,0,66.4,0,99.8,0c0,12.7,0,25.3,0,38.2c-0.8,0-1.6,0.1-2.6,0.1
		c-1.2-7.6-2.8-15-6.3-21.8c-4-7.7-10.5-11.6-18.8-12.8c-12.6-1.7-25.3-0.7-38-1c-1.4,0-2,0.4-2,1.9c0,22,0,44.1,0.1,66.1
		c0,0.1,0.1,0.3,0.2,0.7c0.9,0,1.9,0,2.9,0c5.8,0,11.7,0.1,17.5,0c6-0.2,11.9-1.2,16.8-5.2c3.6-2.9,5.4-6.9,6.6-11.3
		c0.5-1.8,0.8-3.8,1.2-5.7c0.9,0,1.9,0,3,0c0,15.9,0,31.7,0,47.7c-1,0-1.9,0-2.7,0c-0.9-3.1-1.6-6.4-2.7-9.5
		c-2.4-6.6-7.5-10.3-14.2-11.7c-2.8-0.6-5.7-0.9-8.6-1c-6.5-0.1-13.1,0-19.8,0c0,22.9,0,45.7,0,68.6c0.7,0,1.4,0.1,2,0.1
		c10.6,0,21.2,0.2,31.8-0.1c4.5-0.1,9.1-1,13.5-2.2c7.2-2,11.9-7.2,14.5-13.9c2.1-5.4,3.5-11.2,4.8-16.9
		C743.9,188.7,744.5,188,746.7,188.5z"/>
	<path class="st0" d="M85.9,83.1c0,23,0,45.7,0,68.8c3,0,6,0.1,9,0c5.7-0.1,11.6,0.3,17.2-0.6c9.9-1.5,15.1-6.3,17.8-16.3
		c0.5-1.7,0.7-3.5,1-5.3c0.9,0,1.7,0,2.7,0c0,15.9,0,31.7,0,47.7c-0.8,0-1.6,0.1-2.4,0.1c-0.8-3.1-1.5-6.1-2.5-9
		c-2.5-7.7-8.6-11.8-16.1-12.6c-8.8-1-17.7-0.7-26.7-0.9c0,23.2,0,45.9,0,68.9c0.7,0,1.4,0.1,2,0.1c10.7,0,21.5,0.2,32.2-0.1
		c6.9-0.2,13.7-1.1,19.6-5.5c4.1-3.1,6.8-7.2,8.5-11.8c2.1-5.8,3.4-11.8,5.1-18c0.3,0,1.1,0,2,0c0,12.9,0,25.6,0,38.6
		c-34,0-68,0-102.2,0c0-1,0-1.9,0-3.1c4.3,0,8.5,0,13.1,0c0-1,0-1.8,0-2.7c0-45.1,0-90.3,0-135.4c0-2.3-0.6-3-2.9-2.9
		c-3.4,0.2-6.8,0-10.3,0c0-1,0-1.7,0-2.7c33.3,0,66.7,0,100.3,0c0,12.6,0,25.3,0,38.1c-0.8,0-1.5,0.1-2.2,0.1
		c-1.6-5.8-2.9-11.6-4.8-17.2C143,91.4,136,85.1,125.1,84.1c-6.5-0.6-13-0.8-19.5-1C99.2,82.9,92.7,83.1,85.9,83.1z"/>
	<path class="st0" d="M164.6,227.1c0-1.1,0-2,0-3.1c8.7,0.6,13.7-5.5,18-11.2c11.1-14.7,21.5-30,32.2-45.1c1-1.4,1.1-2.4,0.1-4
		c-8.4-13.1-16.7-26.3-25.1-39.4c-5.1-8.1-10.2-16.1-15.2-24.2c-0.9-1.4-1.8-1.9-3.4-1.9c-2.5,0.1-5,0-7.7,0c0-1,0-1.7,0-2.7
		c13.7,0,27.5,0,41.5,0c0,0.8,0,1.6,0,2.6c-3.6,0-7.2,0-11.4,0c11.3,18.2,22.4,35.9,33.6,54c3-4.4,5.9-8.6,8.7-12.8
		c5.6-8.1,11.2-16.2,16.7-24.4c2.2-3.3,4.4-6.8,4.3-11.1c-0.1-3.2-1.1-4.6-4.3-5.2c-2.1-0.4-4.3-0.5-6.6-0.8c0-0.8,0-1.5,0-2.4
		c11.1,0,22.2,0,33.4,0c0,0.8,0,1.6,0,2.5c-8.2,0.2-13.7,5.1-18.1,11.1c-11.1,15.2-21.9,30.5-32.6,45.6c10.6,16.9,21,33.4,31.5,49.9
		c3.8,6,7.7,12,11.7,17.9c0.4,0.7,1.5,1.3,2.3,1.3c2.8,0.2,5.6,0.1,8.6,0.1c0,1.1,0,2.1,0,3.2c-13.8,0-27.6,0-41.5,0
		c0-1,0-1.9,0-3.1c3.6,0,7.1,0,11,0c-11.6-18.6-23-36.8-34.5-55.4c-2.8,4-5.3,7.7-7.8,11.4c-6.5,9.5-13,18.9-19.4,28.5
		c-1.6,2.5-3,5.3-3.7,8.2c-1.1,4.3,0.9,6.7,6,7.3c1.6,0.2,3.3,0,5,0c0,1.2,0,2.1,0,3.2C186.9,227.1,175.8,227.1,164.6,227.1z"/>
	<path class="st0" d="M490.4,171.8c-14.9,0-29.5,0-44.1,0c-4.2,11.6-8.5,23.1-12.6,34.7c-1,3-1.7,6.1-1.2,9.5c0.8,4.6,5,7.6,9.3,7.9
		c1.6,0.1,3.1,0,4.9,0c0,1.1,0,2.1,0,3.2c-11.1,0-22.2,0-33.4,0c0-1,0-1.9,0-2.9c1.8-0.3,3.6-0.2,5.2-0.9c4.5-1.9,7.2-5.8,8.9-10.1
		c4.5-11.4,8.6-22.8,12.9-34.3c5.9-16.1,11.8-32.2,17.7-48.3c4.1-11.2,8.2-22.5,12.2-33.8c0.4-1.1,1-1.6,2.2-1.5
		c2.3,0.1,5.1-0.7,6.7,0.3c1.5,1,1.9,3.8,2.7,5.9c6.1,15.7,12.2,31.4,18.3,47.1c5.6,14.2,11.3,28.4,16.8,42.7
		c4.1,10.4,8,20.7,12,31.1c0.4,1.1,1,1.5,2.2,1.5c3-0.1,6,0,9,0c0,1.2,0,2.1,0,3.2c-13.6,0-27.2,0-41,0c0-1,0-1.9,0-3.1
		c3.7,0,7.4,0,11.5,0C503.9,206.4,497.1,189.1,490.4,171.8z M447.6,168.3c13.9,0,27.6,0,41.5,0c-7.1-18.3-14.1-36.3-21.3-55
		C460.8,132.1,454.2,150.2,447.6,168.3z"/>
	<path class="st0" d="M574.9,223.9c11.5,0,22.9,0.3,34.3-0.1c6.5-0.2,12.6-2.3,17-7.5c3.7-4.4,5.6-9.6,6.9-15.1c0.6-2.3,1-4.7,1.5-7
		c0.3-1.4,0.5-1.6,2.7-1.5c0,11.4,0,22.8,0,34.4c-30.4,0-60.8,0-91.3,0c0-1,0-1.9,0-3.1c3.6,0,7.3,0,11.1,0c0-42,0-83.8,0-125.8
		c-3.7,0-7.4,0-11.1,0c0-1,0-1.8,0-2.7c13.5,0,27,0,40.6,0c0,0.8,0,1.7,0,2.6c-3.9,0-7.6,0-11.6,0
		C574.9,140.1,574.9,181.9,574.9,223.9z"/>
	<path class="st0" d="M416.3,29.7c0,2.1-1.3,2.1-2.4,1.9c-2.4-0.4-3.6,0.7-4.8,2.7c-3.2,5.5-6.6,10.9-10.1,16.2
		c-1,1.6-0.7,2.6,0.1,3.9c1.8,2.8,3.5,5.7,5.4,8.4c2.4,3.3,2.1,7,1.8,10.6c-0.2,2.4-1.2,4.8-2,7.2c-0.9-8.4-6.7-14.1-10.6-21.4
		c-3.3,5.3-7.1,9.9-7.3,16.3c-2.5-3.7-4.1-13.4-0.7-17.1c0.4-0.4,0.5-1,0.9-1.4c3.5-3.5,2.2-6.6-0.4-10c-2-2.5-3.5-5.3-5-8.1
		c-1-1.9-2.3-2.8-4.5-2.5c-0.6,0.1-1.2-0.1-2-0.6c0.5-0.3,1-0.8,1.6-0.8c6.2-0.1,12.5,0,18.8,0.3c-1.8,1.9-4.3,0.5-6.7,1.3
		c1.7,2.8,3.4,5.6,5.4,8.8c2.9-4.7,5.6-9.1,8.5-13.7c-2.2,0-4.1,0-6,0c-0.1-0.3-0.2-0.5-0.3-0.8c0.6-0.4,1.2-1.1,1.9-1.1
		C403.9,29.6,410,29.7,416.3,29.7z"/>
	<path class="st0" d="M413.2,54.5c0-2.2,0-3.8,0-5.9c1.2,0,2.3,0,3.5,0c11.6,0.2,23.2,0.3,34.8,0.5c12.8,0.2,25.7,0.3,38.5,0.5
		c6.8,0.1,13.7,0,20.7,0c0,1.4,0,2.2,0,3.3c-1.7,0-3.4,0-5.1,0c-15.7,0.2-31.4,0.3-47.1,0.5c-12.1,0.1-24.3,0.3-36.4,0.5
		C419.1,53.9,416.3,54.3,413.2,54.5z"/>
	<path class="st0" d="M280.9,53.4c0-1.4,0-2.2,0-3.1c0.4-0.1,0.8-0.2,1.3-0.2c16.8-0.2,33.6-0.3,50.4-0.5
		c12.9-0.1,25.9-0.3,38.8-0.5c2.1,0,4.2-0.4,6.5-0.6c0,2.1,0,3.8,0,6c-2.2-0.2-4.3-0.3-6.5-0.5c-0.5,0-1.1-0.1-1.7-0.1
		c-22.9-0.2-45.8-0.3-68.7-0.5C294.4,53.3,287.7,53.4,280.9,53.4z"/>
</g>
</svg>
